<svg height="244.948974" viewBox="0 0 1920 1152" width="408.24829" xmlns="http://www.w3.org/2000/svg" xmlns:xlink="http://www.w3.org/1999/xlink"><clipPath id="a"><path d="m0 864h1440v-864h-1440z"/></clipPath><clipPath id="b"><path d="m540.185 838.08h362.963v-838.08h-362.963z"/></clipPath><g transform="matrix(1.3333333 0 0 -1.3333333 0 1152)"><path d="m0 576.001h1440v287.999h-1440z" fill="#36459c"/><path d="m-.00267574 288.00384h1439.99987574v287.999h-1439.99987574z" fill="#fff"/><path d="m.001 0h1439.999v288h-1439.999z" fill="#275f2f"/><g clip-path="url(#a)"><path d="m1440 0h-1440v864h1440z" fill="none"/><g clip-path="url(#b)"><path d="m0 0c4.16-3.6 9.59.88 8.47 7.261-1.52 1.649-4.13 1.3-4.84-.861.24-2.37-1.06-3.2-3.11-3.29-.65-.549-.54-1.88-.52-3.11m25.75 71.021c.48 1.929-1.63 4.679-2.77 5.019-4.89 1.42-6.81-2.449-11.4-1.21-.17 2.04-2.3 4.4-4.49 4.141-2.55-.29-3.14-4.601-3.46-7.431.72-1.399 2.2-2.05 4.67-1.72.77-.82 2.01-.469 3.28-.7.59-.099 1.05-.599 1.55-.689 2.1-.351 6.26-.41 8.47 0 .26.049.66.58 1.21.689 1.62.34 2.69.92 2.94 1.901m9.68 75.689c1.05.61 2.67.66 3.11 1.9-1.51 2.1-8.48 7.39-9.68 2.07-.22-.94.15-1.7 0-2.93.83-.439 1.6-.93 2.59-1.209-.19-2.891 4.14-2.141 3.98.169m9.67 152.061c.26 1.569-1.11 2.159-1.9 2.939-.91.92-1.74 2.59-3.45 1.73-1.94-1.99-4.16-3.68-6.57-5.18-.6-.84-.83-2.05-.69-3.63.36-.22.65-.51.86-.87 1.19.19 2.64-.239 3.98 0 .46.091.91.571 1.38.7.52.13 1.22-.109 1.73 0 2.21.48 4.48 3.23 4.66 4.311m14.86-38.881c1.47 1.131 2.65 2.55 2.42 5.36-2.29 1.15-5.16.84-6.91-.689v-3.111c1.08-.929 2.17-1.86 4.49-1.56m6.74 108.87c-.42 1.83.95 2.06.87 3.45-.07.88-.95 1.86-1.39 1.91-1.34.13-1.22-1.75-2.07-2.769.38-.721.92-1.27.69-2.591.36-.27 1.54-.27 1.9 0m6.22-129.6c.18.3-.45 1.27-.69 1.73-2.06.56-2.98-.74-2.24-2.42.89-.25 2.94-.51 2.93.69m7.61 157.25c1.24-2.99 4.01-4.829 5.7-1.389-.69 1.33-1.74 2.299-2.77 3.29-.44.679-1.06 2.27-1.72 3.279-.8 1.21-2.95.971-3.29-.52-.46-2.02 1.61-3.549 2.08-4.66m5.53-536.55c1.62 4.72-7.32 4.04-6.91.691.25-2.111 5.64-2.561 6.91-.691m6.39 173.67c-1.12 1.401-3.1 3.97-5.36 4.321-2.41.359-2.47-1.17-4.32-2.08-3.98 2.879-6.73-4.531-3.8-7.081h9.68c1.58 1.3 2.99 2.77 3.8 4.84m-1.9 163.81c.22 1.261 1.21 2.25.69 3.63-.8.7-1.47 2.44-3.11 1.73-1.53-2.05-6.11-3.83-6.74-6.22-.51-1.919.4-3.55 1.9-4.32 3.31.07 6.55-.599 7.26 2.07.25.97-.19 2.07 0 3.11m2.94 144.46c-.46.29-1.19 1.281-2.08 1.38-1.59.19-2.27-.869-3.62-1.38-.27-.09-.76.1-1.04 0-1.59-.52-3.34-1.68-3.8-2.239-.73-.871-.99-2.371-.87-3.811-.87-1.169-2.19-3.39-.52-4.66 2.51-.15 4.78-.049 6.05 1.03v5.02c1.67 1.83 5.52 1.5 5.88 4.66m.51-297.039c.49.519 1.58 3.119 1.56 3.63-.07 1.519-1.56 1.929-2.59 2.589-1.31.84-2.86 2.92-5.01 2.071-1.03-.83-.77-2.561-2.25-2.931-.81-.21-1.38.38-2.07.34-2.75-.17-3.33-2.76-2.94-6.22 2.09-1.87 7.23-.719 10.89-1.04.55.691 1.79.88 2.41 1.561m5.88 179.709c-1.07 1.58-.47 4.83-1.73 6.22-.69.3-1.83.141-2.76.17-2.08-1.95-4.59-3.48-3.98-8.12-.64-1.92-3.11-3.59-2.76-6.05.3-2.129 2.49-3.62 5.35-3.62 2.92 2.85 4.51 7.011 5.88 11.4m0 13.31c.46 2.48-.95 3.08-2.07 3.97-3.37-.82-9.02 1.22-10.54-.169-2.05-1.871-4.79-4.54-4.5-8.641.75-1.2 1.69-2.23 3.98-1.899 1.08.75 1.04 2.649 2.07 3.449.89.38 2.46.08 3.63.18 1.29.57.96 2.46 2.42 2.931 1.48.489 3.21-.491 5.01.179m-.69-141.009c.24 2.27 1.1 3.849.69 6.049-.26 1.38-1.18 3.32-.69 5.531-2.93 2.109-4.47-1.881-7.95-1.381-.78.551-1.06 1.58-1.73 2.24-4.57.871-6.17-1.79-8.29-3.28-1.2-.84-1.81-.82-2.07-1.56-.86-2.349.3-5.32 1.03-6.73.85-1.65 3.01-2.52 4.49-3.63 1.18-.89 1.99-2.13 3.12-2.6 5.28.3 8.62 2.55 11.4 5.361m15.72 111.979c1.24 1.24 1.8 3.15 1.56 5.87-.71 1.58-3.38 2.731-4.15.52.17-1.97-.37-4.63.35-6.05.44-.42 1.36-.36 2.24-.34m5.88 41.99v.69c-1.39.37-6.15 1.22-6.05-1.04 1.74-1.349 4.27.11 6.05.35m3.97 71.54c1.57.15 2.71.741 2.42 2.761-.87.399-1.43 1.109-2.93.859-1.68 1.161-2.9 3.67-6.05 2.77-.35-3.06-3.24-3.56-3.63-6.569.94-2.111 4.86-1.241 6.22-2.941.17-1.3.67-2.49 1.73-2.41 2.22.16.31 4.73 2.24 5.53m18.32-217.73c.98 4.62-4.9 5.241-6.91 2.93-.691-4.189 4.82-4.99 6.91-2.93m.35-60.65c7.02-1.04 5.45 9.63 1.03 10.54-2.56.52-5.74-.089-8.64-.52-2.72 2.24-7.27 4.46-12.44 3.11-.29-1.79-.28-4.78 0-6.57 1.06-.38 2.8-.069 4.15-.17 2.81-.81 3.74-3.519 5.18-5.699 4.59-.83 4.55 3.829 8.81 2.76.61-1.191.97-2.601 1.91-3.451m1.549 323.48c1.031.701 2 1.44 2.421 2.76-.66 1.421-1.97 2.191-4.32 1.901-1.01 1.48-6.7 5.639-6.22-.341 2.64-1.51 4.95-3.34 8.119-4.32m-2.25-78.63c2.861 1.59 5.231 3.65 6.571 6.74-1.15 3.93-3.92 6.23-9.33 5.88-.63-.46-1.21-.98-1.73-1.559.9-4.071-2-4.331-3.63-5.871v-2.6c-.54-.61-.72-1.58-.86-2.59-.86-1.649-2.39-1.75-1.9-3.97.6-2.79 3.92-.66 4.66.34 1.06 1.441 1.19 3.26 2.42 3.63 1.14.351 2.9-.26 3.799 0m8.641-494.38c-.22.24-.82.24-1.03 0-.05-.319.19-.38.17-.689.56-.04.83.21.86.689m-6.391 198.891c1.911.809 6.631.33 6.571 2.599-.02.491-1.17 1.571-1.73 1.72-3.06.87-6.83-1.14-10.19-.689-4.17-1.641-1.96-8.101 3.97-6.221.94.381.629 2.02 1.379 2.591m15.031 203.219c2.06.71 3.05 7.17-.86 6.561-1.19.77-1.63 2.299-2.59 3.29h-2.94c-1.04 1.149-2.75 4.25-4.49 2.069.099-5.37 1.44-9.5 4.49-11.92 2.69-.149 3.94-.72 6.39 0m1.73 195.26v1.04c-2.6.04-4.761.54-6.39 1.551-.85-.451-1.43-1.031-2.94-.691-1.15.27-3.36 2.671-4.84 2.77-3.06.2-2.2-3.96-.52-4.84 1.99.201 2.96-.62 2.77-2.59 1.25-1.52 3.5-2.03 6.57-1.73 2.17 1.101 1.74 4.811 5.35 4.49m5.19-385.86v2.25c-1.47 1.28-2.59 3.62-4.32 5.011-1.19.939-2.28 1.13-2.77 2.42-.22.559-.03 1.109-.17 1.719-.08.34-.6.79-.691 1.21-.469 2.26-1.25 2.83-2.069 4.5-.66 1.311-1.06 2.62-1.56 3.97-2.89 3.16-6.6 5.49-10.71 7.431-3.84.609-5.31 3.569-8.3 5.009h-1.9c-.9.92-2.3.781-3.461 1.56-.669.45-1.059 1.381-1.719 1.9-1.36 1.04-3.09 1.87-4.5 2.76-2.08 1.32-4.17 2.181-6.39 1.04-2.34-1.2-3.61-1.25-3.11-4.67 1.21-1.49 2.8-2.599 4.84-3.28 3.7-2.92 8.9-5.67 11.58-9.68.45-.679 1.59-2.67 1.549-3.63-.079-1.75-3.229-4.339-5.179-4.83-1.88-.469-2.74-.15-4.321-.69-2.159-.739-3.669-1.93-4.149-3.81.76-4.13 4.14-8.65 8.64-9.67.37-.089 1.03.08 1.55 0 .959-.15 1.63-.75 2.42-.69 1.24.07 2.539 1.08 3.81 1.381h21.08c1.24-3.261 7.32-3.361 9.85-1.211m4.84 133.75c.98 1.391 1.83 3.76 1.38 6.04-1.48-.51-2.29 1.4-3.46 1.73-2.64.74-4.59-.54-6.22-1.549-1.75.009-2.64-.821-3.63-1.56-.39-6.44 6.59-4.651 11.93-4.661m4.32-105.239c.62 3.849-2.45 5.509-6.75 5.009-1.88 1.911-6.05 1.941-5.18-2.42.43-.37 1.069-.54 1.38-1.03 3.61.611 3.83-4.55 6.23-4.67 2.03-.099 2.56 2.39 4.32 3.111m17.62 277.349c1.95.31 2.18 3.1 3.46 4.49-1.64 2.291-4.15 3.69-7.09 4.66h-7.43c-1.24-1.11-4.33-.39-5.53-1.55v-1.73c.7-1.25 3.13-.79 5.01-.86 1.18-.55 2.02-1.439 3.8-1.39 1.03-.759 2.13-1.19 3.12-1.72 1.23-.68 3.4-2.11 4.66-1.9m14.86-316.58c.22 1.09-.6 1.13-.86 1.731-2.49-.231-2.54 1.96-3.981 2.769-2.139.651-9.859 2.78-8.979-1.559.07-.361.4-.571.69-1.031 4.57-.32 7.6-3.11 13.13-1.91m2.08 100.58c1.74-.26 2.11 2.62 1.38 4.14-3.18.88-3.1-3.89-1.38-4.14m5.7 39.39c1.24.951 3.72.681 3.629 2.42-.099 1.761-3 2.07-5.709 1.9-2.291-1.51-6.13-1.47-10.02-1.38-1.29-1.27-2.521-3.44-1.9-6.049 3.83.31 7.86.439 12.1.349.73.82 1.2 1.91 1.9 2.76m-217.21-32.48c-.47-.12-1.15.09-1.73 0-.69-.12-1.22-.589-1.9-.69-1.47-.22-3.17.16-4.84 0-1.75.831-3.51 1.36-5.53.69-1.24-1.06-1-2.16-2.25-2.77-1.17-.56-2.36.19-3.8 0-1.55-.2-2.31-1.48-3.28-2.24-.84-.44-2.2-.21-3.45-.7-.93-.35-1.31-1.2-2.08-1.379-1.83-.401-3.43.529-4.67.689-.64.09-1.32-.14-1.9 0-.52.13-.84.59-1.38.69-1.83.36-3.86.36-5.53.7-.74.14-1.29.6-1.9.691-1.01.139-2.4-.151-3.11 0-.55.109-1 .659-1.73.859-1.51.42-3.3.411-4.66.871-4.37 1.449-2.68 7.419 2.42 7.25 1.14.639 1.25 1.819 2.24 2.589 2.54 1.98 7.57.31 11.58.871 4.46 2.909 7.48 7.259 15.55 6.56 2.99 2.949 6.48 5.379 10.54 7.259 5.33.81 8.86 2.88 12.62 5.011 1.11.639 2.2 1.25 3.28 1.899 1.09.67 2.05 1.59 3.11 2.25 3.69 2.311 8.14 3.24 11.75 6.05 1.1 1.15 2.05 2.45 3.46 3.281 1.39.21 2.44.789 3.63 1.21.33.939.1 2.429.17 3.629-1.4 2.3-6.14 1.24-7.43 3.63-.04.94 1.13 1.58 1.56 2.59.15.39-.05 1.18.17 1.73.22.59.6.691.69 1.211.14.839-.16 1.779 0 2.589.21 1.13 1.17 1.86 1.04 2.94-.16 1.181-4.49 4.241-5.88 4.15-1.3-.09-1.78-1.55-2.94-2.77-1.39-1.46-2.83-2.17-3.28-4.15-4.8-.44-7.16-6.36-12.1-7.43-.56-.119-1.26.12-1.9 0-2.05-.36-3.96-1.869-6.56-1.38-1.34.25-2.66 1.7-4.32 2.071-.64.149-1.47-.121-2.08 0-1.11.239-2.19 1.19-3.97.699-.49-.259-.69-.82-1.56-.699-.83-2.571-3.3-3.5-4.66-5.531-1.2-.46-2.26-1-3.46-1.9-.89-.67-1.37-1.96-2.59-1.899-2.42.129-1.54 3.929-2.59 6.049.68 2.89 2.14 5 4.49 6.221 3.92 1.739 7.6 3.389 11.06 5.529 1.9 1.19 3.71 2.031 6.39 2.08.78 1.23.01 4.01.52 5.52 1.75.73 3.55 1.411 4.67 2.77 4.34 1.65 11.42.55 17.1.86.76.57 1.37 1.281 2.42 1.56.53 1.6 1.04 3.221 2.42 3.971 4.5.869 7.69-1.06 12.44-.511 1.49 1.5 3.53 2.46 3.11 5.87.93.52 1.57 1.31 2.25 2.07.43 4.87 3.52 7.08 5.36 10.54.61.261 1.65.08 2.07.52.66.66.61 2.031 1.56 2.42 2.7-.55 4.06 1.51 5.7 1.73.65.091 1.41-.34 2.07-.17.92.23 1.41 1.35 2.25 1.551 2.76.67 6.1-.971 6.91 1.899.7 2.49-.38 6.311-.17 9.331-4.03-.341-8-.75-11.75-1.381-1.99-2.27-5.4-3.13-6.4-6.389-2.7-1.671-4.13-4.621-6.04-7.091-2.9-.4-3.64-2.94-5.71-3.97-1.19-.59-2.37-.37-3.63-1.38-2.76.39-4.4-1.47-6.91-.69-1.25.381-2.1 2.93-3.8 2.93-2.8.201-6.41-.41-8.64.35-.52 1.811.12 2.66-.17 3.97-.51 2.29-3.25 3.62-3.63 5.19-.39 1.59.58 3.671-1.73 3.97-1.55-.34-1.39-2.16-2.42-3.11-.52-.47-1.8-.75-2.76-1.209-3.05-1.431-5.5-3.601-8.64-4.661-1.06 1.471-2.59 2.48-2.42 5.181-1.1.689-.97 1.839-1.9 2.589-.71.57-1.53.4-2.59.69-.63.18-.96.62-1.39.69-2.52.43-5.69-.449-8.29.18-.61.95-1.75 2.081-1.56 3.28 2.97.94 5.99.6 8.99 1.04.75.11 1.45.591 2.25.69 1.91.25 3.94-.4 5.87 0 1.2.25 2.39 1.321 3.8 1.55 1.26.21 2.51-.22 3.8 0 1.32.23 3.03 1.19 5.01.69 1.46.73 2.05 2.34 3.12 3.46 1.65.25 3.64.161 4.32 1.38.39.59.05 1.9.17 2.77-3.16 2.32-8.63 2.32-10.71 5.7 1.48.14 2.75.811 4.32 1.041 2.68.389 5.96-.741 8.63 0 1.58.439 3.04 2.939 5.02 3.629 1.15.4 2.14.08 3.28.69-.46 3.96 4.44 2.57 6.74 3.8.78 1.18 1.5 2.421 1.38 4.49-1.29.72-2.97 1.07-5.18.871-3.01-2.701-10.13-2.201-15.56-1.911-1.25.71-1.27 2.09-2.07 3.11-1.58 2.03-4.45 2.83-5.87 5.02-1.8.99-4.06 2.37-4.32 4.321 2.15.759 4.43 1.619 6.91 1.21 1.07-.181 1.68-.761 2.76-.69 1.49.079 2.78 1.149 4.15 1.379 2.43.4 5.02-.25 7.6.17 1.93.32 4.21.81 6.74.52 1.09.38 1.16 1.85 2.94 2.24 2.98.671 6.92-.22 8.99.7 3.24 1.451.73 3.82-1.73 4.14h-20.39c-1.9.561-4.63 3.03-4.5 4.84.19 2.69 6.22 4.11 5.19 7.951-4.24 2.089-10.38.069-15.55.859-2.26.35-4.47 1.9-6.4 1.9-1.21 0-2.7-.949-4.14-.509-1.54 1.569-2.56 3.669-4.32 5.009-1.69.21-2.65 1.61-3.63 2.241-.53.349-1.24.299-1.73.699-.66.52-1.09 1.5-1.73 2.071-.69.609-1.65.939-2.42 1.549-.98.8-1.63 2.05-2.42 3.12-.64.86-2.73 2.16-1.21 3.45 1.29.39 1.95-1.09 3.29-1.38 2-.429 5.94-.42 8.12 0 1.54.29 2.85 1.5 4.32.86 1.6-.66 2.13-2.16 3.8-2.24 1.73-.089 3.1 1.871 5.36 2.24 1.51.25 2.42-.34 4.14.171.15.309.39.54.7.699.41 2.08-.68 2.67-1.21 3.801.95 1.52 1.94 3 3.62 3.799 4.38-1.43 11.6-.029 14.35-3.11 0-1.51.7-3.18 2.41-2.419.74 1.109.16 3.52.35 5.179-1.44 1.97-3.97 2.841-5.53 4.67-1.03 2.08-1.85 4.381-2.76 6.57-1.06 1.23-2.58.87-4.5 1.21-1.23.21-2.39 1.23-3.8.69-.96.51-1.08 1.65-1.73 2.42-1.92 2.281-4.74 3.85-6.22 6.56 2.04 1.74 5.5.23 7.09 0 .81-.109 1.7.15 2.42 0 .56-.109.85-.69 1.38-.859 1.08-.351 1.84-.21 2.42-.521 1.59-.86 3.66-.729 5.01-1.38.38-.19.84-.05 1.21-.18 2.68-.91 6.02-.58 9.85-.859.63-.911.03-2.071.86-2.941 1.27-1.329 8.03-1.71 10.89-1.21.69.131 1.29.611 1.9.7 2.52.37 5.27-.44 6.05 1.201-.46 2.289-3.74 3.98-3.63 6.569.07 1.63 1.49 2.48 2.59 3.63 2.07-.05 2.43 1.6 3.8 2.25 2.76 0 3.74 1.79 4.84 3.45.48.561 2.46-.379 2.42.69-.21 2.27-3.46 1.5-3.11 4.32-1.84.591-3.69 1.15-5.7 1.56-3.38 2.04-8.3 2.531-12.1 4.15-2.13-.29-2.61 1.08-4.84.69-.71.1-.69.921-1.55.86-1.86-.36-2.01.99-3.8.69-1.82 1.26-4 1.81-5.88 3.11-1.41.971-2.55 2.281-3.97 3.11-1.04.611-2.12.87-3.11 1.56-1.76 1.21-3.7 2.22-4.32 4.321-4.57 3.199-8.33 7.23-11.41 11.919 1.05 2.16 4.75 1.38 7.6 1.38 2.79 0 6.75.65 9.16 0 .91-.239 1.47-1.739 2.42-2.239.2-.111.9-.02 1.38-.181 1.7-.55 4.09-.64 6.57-.51 1.67-2.42 4.76-3.42 9.33-2.94 1.06-.75 1.27-1.69 2.42-2.08 1.28-.42 2.77.26 4.32 0 .87-.14 1.55-1.15 2.59-1.38 2.61-.56 5.53.43 8.47 0 1-.73 1.31-2.14 2.25-2.929 2.27-.56 5.49-1.071 8.29-.52-.11 1.619.21 3.669-.17 5.009-1.72.11-3.38.991-4.67 1.031-1.17.049-1.55-.531-2.59-.691-2.06-.309-5.72-.5-7.6 0-1.77.48-2.19 2.72-3.8 3.631-1.54-.44-2.16.73-3.46.689-1.32-.03-2.17-1.09-3.63-.689-1.18.329-1.7 2.389-3.45 2.77-1.47.309-2.1-.371-3.98.169-1.47 1.88-2.74 3.94-5.35 4.67.57 5.29-2.34 7.121-4.5 9.67-.06 4.55-4.45 4.77-6.22 7.6 1.38 1.28 3.22 3.141 4.84 4.15.45.281 1.17.64 1.73.69 1.14.13 1.78-.489 2.42-.69 1.44-.44 1.37-.299 2.42-.86.44-.25.91-.47 1.38-.689 3.25-1.561 6.33-3.5 9.85-4.5 1.4-.391 2.93-.75 4.84-.511 1.12-.429 1.26-1.85 1.73-2.94 1.44-.219 2.17.56 2.24 1.38.21 2.53-5.47 4.02-3.45 8.29.92 1.66 2.69 2.5 4.14 3.63.73 1.401.8 3.47.69 5.711-4.58 3.599-8.77 8.009-12.96 12.44-1.25 1.319-3.95 3.069-4.32 4.319-.52 1.75.3 3.951 0 5.701-.18 1.099-1.05 2.279-1.38 3.459-.14.51-.01 1.05-.17 1.55-1.41 4.241-.04 10.41-.52 16.42.35.341.56.821 1.04 1.03.72.32 2.36.24 3.11 0 1-2.939 2.3-5.27 4.14-7.6 1.57-1.99 3.12-4.15 6.4-3.629 2.39-2.44 4.99-4.681 7.6-6.911-1.74-2.98 1.2-5.02 2.77-6.569 1.13-1.111 2.83-3.101 3.97-3.111 1.43 0 2.59 2.131 2.59 3.98 0 1.73-1.31 3.31-.69 5.35-.35 1.011-1 1.68-1.55 2.6-.51.83-1.46 2.03-1.39 2.931.1 1.209 3.28 4.209 4.32 4.5.92.259 2.02-.21 2.94 0 .91.199 1.15 1 1.9 1.379.89.45 2.08.13 2.42 1.04v5.871c-.88.789-1.57 1.779-3.28 1.73-.88.679-1.07 2.049-1.9 2.759-2.13-.11-2.88 1.16-4.5 1.56-.7 3.03-4.52 1.94-3.28 5.87.12.41 1.15 1.98 1.9 2.94.92 1.18 2.16 1.84 3.29 2.59 1.15.79 3.31 2.16 4.32 2.42.43.12 1.1-.09 1.55 0 1.1.23 1.33.821 2.07.69 2.33-.39 2.24-5.869 5.53-5.7 2.31.121 3.59 3.06 5.19 4.67.97.98 2.02 1.21 2.76 2.07-.08 4.8 3.13 6.32 3.8 10.37 2.16 1.531 3.01 4.17 5.19 5.7 1.47 1.05 3.47.97 4.66 2.59.13.04.2.15.18.35h7.94c.12-2.3 2.23-2.609 3.46-3.8.53-2.39-.14-4.75.17-6.74.49-3.109 2.86-5.27 2.94-8.47 1.27-1.659 3.15-2.73 4.32-4.49-.32-1.919.53-2.69.69-4.149.74-.821 1.29-1.811 2.77-1.901 2.19-2.22 5.09-5.49 7.25-8.119 1.44-1.741 2.79-3.071 6.23-2.771.44-1.56.63-3.39 1.55-4.49-1.64-1.76.35-5.39 2.249-3.11-.419 4.46 3.901 6.871 6.041 9.161 2.27 2.409 4.03 4.429 5.88 6.569.18 1.08.82 1.71 1.56 2.24 4.05-.539 5.62 1.41 7.94 2.59.99-3.02-.14-6.27.35-9.5.25-1.7 1.33-5.02.52-7.78-1.08-1.159-2.74-1.75-3.46-3.28 1.56-2.4.15-4.45-1.38-5.7-.1-1.34.21-3.09-.17-4.15-2.33-1.59-4.281-3.71-6.92-6.39-1.8-1.829-6.27-4.559-3.62-6.91 3.22-.64 6.07-.32 8.81 0 1.03.12 2.22-.31 3.28 0 2.26.65 2.55 4.53 4.84 5.01 5.23-.8 5.21 3.66 7.95 5.35.01 3.5 2.21 4.81 4.32 6.23 2.32-.11 5.05.201 7.08-.18.6-3.579 1.21-10.04-2.59-10.369-1.28-1.891-1.45-4.881-1.55-7.94-.26-.911-1.131-1.181-2.08-1.391-.49-2.149-.75-4.54-.86-7.08-.4-1.1-1.99-1.01-2.76-1.73 1.12-1.47 2.569-2.609 3.62-4.15 3.86-.38 4.27 3.96 7.26 4.67.84.2 1.97-.29 2.939 0 1.301.391 1.931 2.371 3.111 2.94 7.12-.14 15 .491 20.91-.87.52-.56.29-1.88.34-2.94-2.67-1.3-3.17-4.77-6.22-5.699-.13-.651-.46-1.801-1.21-2.071-.72-.27-1.47.52-2.24.52-.88 0-1.41-.42-2.77-.69-.52-.11-.91-.61-1.38-.7-1.05-.18-2.3.18-3.28 0-.67-.11-1.2-.59-1.73-.69-.87-.139-2.2.2-2.94 0-1.841-.49-1.62-2.36-2.07-3.63-.49-1.35-2.31-1.7-2.08-3.799 2.78-1.19 7.38-.571 10.2-1.73 2.609 1.469 3.359 4.809 7.26 5.02 1.53.759 2.77 1.829 3.97 2.929 3.58-.1 7.58.22 10.89-.17 1.5-1.819.92-7.42.51-10.02-.96-.46-1.9.07-2.76-.17-.91-.26-3.83-2.65-4.15-3.98-.34-1.41.36-2.89-.17-4.49-.65-.389-1.01-1.07-2.25-.869-.59-1.181-1.45-2.111-2.42-2.931-2.93-.31-5.1.411-7.43 0-1-.18-1.77-1.13-2.76-1.39-.53-.13-1.081.08-1.55 0-1.05-.17-1.94-1.13-3.12-.69-.49-.39-1.53-1.08-1.21-2.07.16-.5 2.14-1.25 2.94-1.379 1.59-.27 4.16 0 6.91 0 2.29 0 5.56-.33 6.74 0 1.47.409 2.36 2.69 3.459 2.929 2.411.13 4.271.801 6.221 1.39.27.641.22 1.621.86 1.9 5.26.68 12.43.35 17.98.17.61-.76.24-2.52.34-3.8-.7-.74-1.25-1.64-2.07-2.25.15-4.3-2.67-5.62-4.15-8.29-3.61-.069-6.14-1.23-10.2-.87-1.07-.71-1.25-2.31-1.72-3.62-1.07-2.22-2.81-3.76-4.32-5.53-1.67-.18-2.34-1.35-3.98-1.56-.98-1.2-1.73-2.65-2.94-3.63h-9.84c-1.36.52-2.47 3.24-3.98 3.63-2.12.55-3.39-.89-2.25-2.42.37-.49 1.37-.589 2.42-1.21.75-.44 1.19-.919 2.25-1.379 1.47-.631 2.69-1.79 1.73-4.151-3.03-.78-5.81-1.79-6.91-4.49-.36-.06-.75-.12-1.17-.18-1.29-.15-2.81-.219-4.19.01-.86.13-1.38.69-2.07.69-.72 0-1.28-.56-2.08-.69-.72-.12-1.53.12-2.24 0-.57-.1-1.01-.59-1.56-.689-2.32-.421-6.2-.351-8.29 0-1.18.199-1.94 1.02-3.8.689-.65-.12-1.291-.89-1.91-.689-1.21-1.421-1.01-3.96.69-4.671 1.66-.22 2.77-1.11 4.5-.86.679.1 1.23.58 1.9.69 4.98.83 9.85-1.5 15.2-.69 1.55.64 2.14 2.23 3.12 3.45.34.081.69.14 1.05.17 2.83.34 6.06-.49 9.14 0 1.21.201 2.769 1.21 3.8 1.391 3.66.639 8.27-.041 12.62.169 7.26.351 13.78-.35 20.73-.169.53-.46.97-.991 1.56-1.391 1.42-.08 2.6.19 3.63-.17.92-.32 1.19-1.14 1.9-1.73 1.31-1.08 3.25-1.419 4.15-2.76.01-1.54 1.03-2.07.86-3.8 1.58-1.04 3.5-1.97 5.7-1.56 2.64.5 4.53 4.03 7.95 3.46 1.39.971 2.32 2.4 3.63 3.451 2.83-.23 3.59 1.599 4.67 3.109 2.62-.18 6.04.411 8.12-.339.27-1.171.27-3.321 0-4.491-3.49-.469-4.86-2.02-7.09-4.32-1.08-1.11-2.56-2.18-3.28-3.11-.5-.64-.54-1.41-1.04-1.9-1.57-1.56-4.3-1.86-5.01-4.33.3-2.079-.4-3.17-.86-4.49-3.28-2.319-8.62-3.35-14.17-2.42-.41.07-.76.55-1.38.69-.42.101-1.06-.109-1.39 0-.7.26-1.5.97-3.11.7-.94-.16-1.85-1.119-2.76-1.39-.42-.11-.89.13-1.211 0-1.339-.49-2.5-1.54-3.289-2.59v-3.97c.85-1.16 1.47-2.57 2.08-3.98-4.23-.78-9.9-.129-14.69-.34-1.4-2.18-2.8-4.34-6.39-4.32-1.23-1.9-2.09-4.14-2.77-6.57-.88-1.66-2.45-2.629-4.15-3.459h-5.87c-1.09 1-1.77 2.389-3.29 2.939-4.02.61-7.14-.81-10.71 0-1.83.42-2.88 2.68-4.49 2.77-1.77.09-2.55-1.379-3.63-2.419-.28-2.29.62-3.421 1.55-4.5 2.43-.5 4.94-.921 8.13-.691 1.78-1.12 4.769-3.45 7.43-1.55 4.85-1.42 7.44-5.11 12.27-6.57.89-1.169 2.61-2.03 4.14-2.939.51-.301 1.16-.411 1.56-.691.81-.55 1.22-1.73 2.25-1.9 1.13-.19 2.08.39 3.619.69 1.881.381 3.861 1.85 5.021 2.08 2.75.531 7.05 0 10.54 0 3.8 0 7.7.64 10.36 0 .73-.179 3.99-2.98 4.32-4.15.17-.61-.13-1.33 0-1.9.3-.399.83-.55 1.04-1.04 2.43.3 4.82-.39 7.26 0 1.39.23 2.33.891 3.8.69.63-.08 1.09-.56 1.73-.69 3.07-.589 6.78.06 8.29 1.38 3.63-.23 5.03 1.77 7.26 2.94 1.87-.32 2.12.99 3.97.69 1.05.48 1.13 1.52 2.08 1.901.78.329 1.61-.04 2.59.179 2.38.52 3.89 4 7.08 2.76.62-1.83 1.77-3.56.35-5.36-.78-.97-2.63-1.65-3.97-2.59-2.04-1.4-3.83-3.19-5.36-3.63-1.23.2-1.76-.31-2.42-.69-4.82 1.01-4.4-3.2-8.47-2.93-1.67-.8-2.65-2.62-4.66-3.46-.38-.15-.91-.02-1.38-.17-1.4-.44-2.51-1.87-3.29-2.08-1.891-.489-3.79 0-5.7-.69-1.63-1.03-2.2-3.089-4.32-3.629-1.78.52-3.32-.48-4.49-.69-1.18-.201-2.69.219-4.15 0-2.07-.301-3.59-.98-5.18-.691-2.74.49-4.32 2.97-6.74 3.8.06 1.38 1.39 1.49 1.55 2.77-.23 1.16-1.42 1.351-2.94 1.21-1.47-2.21-3.55-3.83-5.01-6.05-4.06.78-7.61-1.64-9.85-3.8.49-1.239 2.03-1.44 3.11-2.08 4.6.12 10.21.08 14.17-.52 9.82-1.46 21.88.881 32.49-.34 1.89-1.279 3.07-3.26 5.36-4.15.15-1.11.96-1.57 1.03-2.76 1.5-.4 2.65-1.15 2.94-2.77 1.45-1.09 2.32-3.03 3.8-4.139 1.2-.921 3.14-1.111 3.46-2.941-1.61-1.329-4.55-.94-6.91-.69-1.21 1.03-2.72 1.78-3.81 2.93-3.94 0-4.44 3.9-9.5 2.94-1.43-.259-3.78-2.54-5.88-2.94-3.23-.6-6.03.951-7.08-1.72-.44-2.34 1.33-3.39.52-5.53-.25-.98-1.48-.92-2.42-1.39-.85-.409-1.48-1.199-2.42-1.38-2.91-.54-6.23-.009-9.16-.69-1.57.73-2.44 3.75-4.15 3.46-1.33-.23-.82-2.299-2.24-2.77-1.74.17-2.08 2.38-3.8 2.77-1.13.26-5.05-.85-5.88-1.56-.83-.699-.88-1.9-1.38-2.59.58-2.35 3.33-2.54 3.46-5.359 1-1.06 2.54-1.601 3.45-2.761-1.34-1.23-.33-3.299-.35-5.529-.48-1.051-1.56-1.281-1.72-2.421-.27-1.82 1.62-3.619 2.59-4.67 4.27-.619 9.11.841 12.96 0 1.91-.409 2.99-2.44 4.49-2.929 1.16.489 1.94-.471 2.94-.701.6-.13 1.33.11 1.9 0 .96-.17 2.46-.92 3.46-1.549 1.07-.681 2.52-1.551 3.11-2.25.63-.75.64-1.851 1.03-2.761 1.01-2.33 3.05-4.46 3.63-6.91 1.69-1.25 3.39-2.49 4.84-3.98.97-4.38 5.86-5.76 5.88-10.539-3.93-.241-8.09-.881-11.58-.341-1.13.17-1.81.7-2.59.69-1-.02-2.26-.409-3.11-.69-.49-.159-.94-.71-1.56-.699-2.07.069-3.9 3.549-5.7 4.839-.5.36-1.4.59-1.73.871-2.28 1.899-2.79 5.54-4.84 7.77-1.11 1.219-2.43 1.439-3.45 2.77-.69 2.5-1.59 6.21-3.98 6.04-1.5-.101-1.26-1.651-2.07-2.761-.61-.83-1.3-.68-1.73-1.549-.08-1.631 1.26-1.861 2.59-2.081 1.87-2.01 3.98-5.74 5.53-8.98.95-1.99 1.66-3.39.35-5.36-2.28-3.41-9.68-2.87-12.1-6.22-.4-3.22.739-4.9 2.59-5.879.64-.111 1.44.149 2.25 0 2.28-.411 4.03-3.081 7.08-3.621.63-.109 1.42.11 2.08 0 .6-.109 1.12-.569 1.73-.7 1.05-.23 2.35.29 3.45-.69 6.58.591 10.63-1.35 17.11-.86 1.43-1.28 2.58-2.839 4.67-3.46 2.2-.16 5.07.36 6.73-.339.63-1.281.66-3.141 1.21-4.5.42-.901 2.03-.611 2.08-1.901-.56-.95-1.67-.429-2.6-.69-.87-.239-1.53-1.05-2.41-1.38-1.86-.69-4.35-.79-4.84-2.77 1.26-2.049 2.68-3.85 5.35-4.31 3.59-.62 8.95.81 11.759-.87 2.5-1.5 2.931-4.71 5.521-6.05.04-1.43-1.64-.92-2.76-1.21-.58-.14-1.02-.6-1.56-.69-.63-.11-1.44.121-2.24 0-1.52-.23-2.54-.97-3.63-.689-1.66.429-1.99 2.739-3.63 2.77-5.96-.491-10.12.819-15.72.689-1.42 1.12-1.96 3.12-3.981 3.63h-7.429c-1.41.83-2.84 3.411-5.53 2.931-.92-.161-2.01-.98-2.07-2.241-.05-.87 1.24-2.9 2.07-3.81 1.53-1.659 4.68-2.34 6.91-3.969.7-.5.97-1.171 1.56-1.551 1.71-1.11 4.59-1.88 6.39-2.77.82-1.24 2.53-1.61 3.46-2.76 3.66-1.37 6.71-4.08 9.85-6.23 1.07-.73 1.91-1.53 2.93-2.24.56-.389 1.22-.46 1.73-.87.79-.61 1.27-1.59 2.08-2.24 1.02-.83 2.14-1.33 3.11-2.25.85-.81 1.49-1.87 2.42-2.76 1.76-1.71 3.85-3.309 5.35-5.19.6-.75.919-1.7 1.56-2.42.62-.709 1.51-1.18 2.07-1.9 1.86-2.37 3.19-5.259 4.49-7.95-1.32-1.229-3.47-1.849-5.701-1.38-2.139.46-3.969 3.16-5.699 3.63-4.22-.41-6.16 1.45-8.64 2.771-2.34-.221-4.63.59-6.22-.351-.46-1.22-.48-2.859-1.73-3.279-3.06.559-4.57-1.271-7.26-.521-1.1 1.01-.98 2.12-1.55 3.8-.16.45-.62.65-.69 1.04-.12.61.06 1.471 0 2.24-.09 1-.57 1.931-.69 2.94-.36 2.85.36 3.301-2.25 4.491-1.51.699-2.16.859-4.15 1.209-.63.12-1.14.62-1.55.69-5.9 1.02-10.48-.66-12.1-3.97.23-1.49-.32-2.48 0-3.8.6-2.46 4.74-3.47 4.84-6.22.03-1.019-.63-1.97-1.38-3.109-1.97-.79-4.19-.551-6.22-.87-1.67-.261-1.86-.7-3.63-.17-2.56.76-5.04 1.72-7.6 2.25-4.78 2.649-8.97 5.889-14.17 8.119-.66 1.01-1.55 1.8-2.42 2.59-4.99 1.12-7.95 4.27-10.891 7.43-6.129 2.28-10.929 5.891-15.209 10.02-1.62 0-2.35.88-3.97.871-1.31 1.389-2.38 3.039-4.67 3.449-1.58.15-3.8-.34-4.84.35-.89.44-.72 1.931-1.55 2.42-.42.33-1.39.11-2.07.17-1.71-1.4-1.16-3.32.17-4.32 1.34-1.01 3.24-2.68 3.8-4.15-1.33-1.66-.19-3.49.52-5.01-1.4-1.44-4.67-.78-5.53-2.59-.37-.76-.2-2.74 0-3.629.349-1.601 2-2.67 3.11-3.281 1.76.49 3.53-.449 5.36-.69 1.26-.17 2.54.281 3.629 0 1.201-.31 1.75-1.739 2.761-2.08h2.42c1.74-.99 3.27-1.19 4.84-2.419 1.25-.981 1.87-2.511 2.93-3.801 1.32-1.59 2.94-2.67 4.5-3.97h1.38c5.99-3.05 13.06-5.03 17.97-9.16 1.71-.479 2.78-1.59 5.01-1.55.35-.219.73-.429 1.04-.7 4.64-.59 8.04-2.43 11.399-4.319 1.351.26 1.721-.471 2.601-.691h3.11c3.42-2.45 4.31-7.44 9.5-8.12 1.03-.29 1-1.21 1.73-1.899 1.62-1.54 5.02-1.841 4.32-5.011-6.19-.71-11.92-1.35-17.63-.35-1.76.31-4 1.98-6.04 1.56-1.43-.29-2.01-2.06-3.81-2.769-.89-.34-2.281-.941-2.76-1.031-1.82-.34-2.85.601-4.84 1.031-.88.259-.89 1.639-1.73 2.419-.26.25-.92.18-1.21.52-.29.341-.26 1.011-.52 1.381-.95 1.389-3.86 3.59-5.87 3.289-1.56-.23-4.56-1.44-4.32-3.63 1.8-1.54 6.63-.05 6.39-3.63 1.02-1.87 3.48-1.72 4.67-3.46.5-.729.52-1.939 1.04-2.76.69-1.11 1.51-1.28 2.59-2.08 3.72.16 5.22-1.92 7.26-3.45 1.49-.279 2.62-.939 4.31-1.04 1.53-3.069 2.01-6.439 3.98-8.979 1.03-1.34 2.71-1.67 3.63-3.111-.32-3.03 1.55-4.49 3.45-6.399 1.19-1.191 3.43-4.33 5.88-3.631 1.04.311 1.35 2.45 2.59 2.77 2.59.67 5.91-2.33 7.26-3.799 1.97-2.16 3.63-3.651 5.35-5.531 2.75-1.049 5.4-2.21 8.64-2.77.929-.6 3.15-2.01 5.02-2.76 2.19-.88 3.88-1.68 1.9-3.8-2.93-.559-5.741.34-8.47-.87-1.26-.55-2.38-2.639-3.46-2.939-1.36-.37-3.561 0-5.53 0-1.94 0-4.16-.221-5.531 0-1.199.199-3.209 1.13-5.349.699-.94-.189-1.63-.939-2.42-1.56-.22-2.259-1.06-3.9-.69-6.74-.541-.599-.92-1.849-1.73-2.25-1.68-.8-3.561-.269-5.53-.859-.71-.21-2.45-1.691-3.281-2.25-1.189-.78-2.209-1.611-3.109-2.41-.58-2.401-.19-5.821 2.24-6.05 1.65-.16 3.02 1.529 4.5 2.42 1.24.75 1.77 1.88 2.76 1.899 1.09.01 2.59-1.59 3.8-2.59 2.04-1.69 2.72-2.639 5.19-3.809 2.39-1.131 3.32-.011 5.18 1.729 1.17 1.101 2.04 2.361 2.76 3.111 2.24 1.129 5.9.87 10.2.87 2.75 0 5.71.38 7.78 0 .73-.141 1.89-.821 2.93-1.21 1.019-.381 2.11-.691 2.94-1.04 1.36-.58 3.74-1.13 4.67-2.25-.78-2.04-.01-5.641-.52-7.95-1.47-.55-2.51-1.67-4.321-2.071-1.639-.37-3.479.25-5.189 0-1.73-.24-3-1.399-4.49-1.55-1.2-2.32-2.01-5.02-2.76-7.78-2.54-.62-4.64.25-6.91-.17-1.21-.229-2.16-1.349-3.29-1.38-1.27-.04-2.82.97-4.32 1.55-2.041.79-4.94 1.83-7.26 2.941-.39 1.219-1.18 2.04-2.07 2.759-2.711-.059-5.94.41-7.26-1.04-.23-.45-.21-1.17-.34-1.719-1.35-1.031-3.17-2.581-5.361-3.63-.969-.46-2.479-1-3.279-.861-2.15.361-2.65 3.41-4.67 4.31-3.51.03-6.14-1.52-8.12.87-.07 1.261-.46 2.19-1.21 2.761-1.53.09-3.41-.181-4.66.179-1.42 1.111-.32 3.75-2.94 3.451-4.01-.451-1.42-9.231.34-10.71 3.36-.361 8.84 1.09 7.78-4.491 1.57-1.429 3.06-3.849 3.28-6.049-.09-1.181-1.65-.92-2.59-1.21-1.01-.311-1.82-.981-3.63-.691-1.48.231-2.31 1.51-3.63 1.38-1.31-.12-1.98-2.109-3.28-2.59-2.12-.78-5.5.321-7.78-.179-1.53-.33-2.23-1.8-2.59-3.281 1.45-2.639 4.729-.67 7.26-1.549 1.24-.441 1.94-2.34 3.28-2.771 1.43-.439 3.37.5 5.189 0 1.031-.29 1.531-1.77 2.411-2.069 2.19 1.309 3.27 3.759 5.71 4.84 2.56-.17 4.46.729 6.39 0 2.08-.8 3.21-3.951 5.18-5.531 2.98-2.38 5.92-3.17 12.1-3.11.82-.789 1.2-2.02 2.25-2.6 16.73.51 35.58-1.62 52.01-.17 1.97.17 4.23 1.241 6.91.52 2.69-2.26 6.65-3.659 10.2-5.529 2.27-1.201 4.88-2.101 5.7-3.46 2.45-4.09-4.34-4.21-8.64-3.971-1.64.091-3.56.141-4.67.52-1.13.38-1.18 1.6-2.76 1.55-1.13-.03-1.14-.929-2.42-1.38-.56-.19-1.35.031-1.9-.17-1.31-.469-1.721-1.66-2.25-2.589-1.78-.651-4.66-1.451-7.08-.871-1.49.361-1.73 1.97-2.94 2.081-1.83-.72-.58-4.5-1.21-6.401-1.05-1.03-2.45-2.099-4.15-2.939-3.23-1.58-9.57-.311-11.4-3.63-2.8-.32-5.39-.221-8.12-.691-1.8-.309-3.571-1.62-5.19-1.379-.85.129-1.46 1.169-2.42 1.379-1.25.281-2.91-.29-4.14 0-2.28.56-3.571 4.571-6.74 3.63-1.43 2.25-5.34 3.71-8.12 1.731-.47-1.49-.52-3.401-1.39-4.49-2.62-.13-5.3-.84-7.43-.18-2.25.72-2.54 3.75-4.66 4.319-1.51-.97-1.17-3.79-3.11-4.319-2.22.029-4.09-.301-6.4-.171-2.971 3.95-6.33 9.891-10.36 14-1.13 1.15-2.97 2.71-4.15 2.761-2.28.099-2.76-2.12-4.67-2.761-2.03.96-2.25 2.82-4.49 3.11-1.33.17-2.88-.559-4.15-.17-1.48.46-1.78 1.901-2.93 2.59-4.48.01-5.29 3.71-7.95 5.53-1.44-.75-2.59-2.24-4.67-2.589-1.29-.221-3.11.529-4.15-.521 1.33-2.309 4.25-.58 6.74-1.559 1.3-.51 1.97-2.411 3.46-2.59 2.24-.271 4.4 1.359 6.05-.691.64-6.519-9.14-4.099-9.85-9.849 3.47-1.021 6.1.299 8.81-1.04.91-.441 1.41-1.721 2.42-2.071 1.69-.59 3.49.29 5.36-.17 1.53-.379 2.32-2.379 3.97-2.77 1.15-.26 2.73.33 4.15 0 2.29-.539 4.06-4.43 8.98-2.94 4.07-3.469 10.08-5.009 12.959-9.669-.709-3.93 1.541-4.911 2.941-6.741 1.58-4.389-4.77-5.469-7.78-4.84-1.89.401-2.52 2.911-3.97 3.111-1.37.3-3.42-.391-5.01 0-1.11.269-1.86 1.71-2.94 2.069-2.61.891-5.53-.019-8.81.7-1.29.281-2.37 1.64-3.8 2.071-1.05.319-2.31.7-3.29.859-2.54.41-4.6-.14-6.74.87-.87.41-1.38 1.231-2.59 1.21-1.88-3.85 3.14-4.21 6.4-5.529 2.31-.95 3.68-2.421 5.18-2.941 1.2-1.61 2.61-3.03 4.32-4.15 4.58.301 4.76-4.73 8.29-5.699.7-.191 1.4.059 2.08-.17 1.91-.671 3.51-3.32 5.36-4.671 2.21-1.63 4.32-2.14 6.56-3.449.65-.91 1.15-1.971 2.07-2.601 6.18.061 13.28 0 19.36-.51 1.49-.13 3.2.1 4.49-.179 1.03-.21 1.67-1.231 2.94-1.38 2.07-.25 5.36-.731 7.6-.861 1.19-.07 2.26.1 2.94-.179 1.89-.781 2.92-5.281 3.97-7.601-.19-1.389-1.67-2.609-2.76-4.319-1.53-2.391-2.95-7.551-7.6-6.051-2.961.96-3.73 4.761-7.09 5.7h-5.01c-.83.51-1.14 1.51-1.9 2.08-3.41-1.82-5.19-6.61-8.98-7.78-2.27-.689-4.38.32-6.75.351-2.39.029-5.01-1.21-6.04 1.38-.441 1.089-.14 2.109-.87 3.109-1.23 1.681-4.22 2.12-6.74 3.801-1.06.71-1.77 1.84-2.24 2.08-1.57.76-3.64.25-5.36.689-1.81.45-3.04 2.54-5.36 2.93-2.13.37-3.77-.26-6.56 0-1.36 1.181-2.51 2.421-3.8 3.81-.93.98-3.3 2.75-3.63 3.97-.52 1.87.619 3.72-.18 5.361-.5 1.019-2.31 1.719-3.28 2.929-1.34 1.68-1.65 3.09-2.59 5.361-1.09-.22-1.55-1.29-2.94-1.731-.8-.239-1.76-.019-2.59-.34-1.11-.429-1.82-2.11-2.94-2.25-2.27-.269-2.39 2.231-4.49 2.941-2.94-1.401-4.66-.021-6.39 1.549-.87.791-2.27 1.47-2.6 2.25-.74 1.76.19 3.96-.17 6.22-2.37 1.561-8.75.91-11.92.521.33-2.991 11.24-7.681 5.7-11.58.31-1.241 1.48-1.63 2.07-2.59-.15-3.721 2.79-5.681 4.84-7.78 1.8-1.84 3.56-3.63 5.36-4.831h2.59c2.17-1.69 3.36-4.36 5.88-5.71 2.91.46 3.47-2.389 5.87-2.929.87-.2 1.72.069 2.42-.181 1.16-.399 1.729-1.92 2.94-2.42.64-.26 1.34-.13 1.9-.34 1.2-.46 1.44-1.54 2.42-2.08 6.69.241 8.17-5.63 8.12-11.57-2.79-1.569-6.52-2.359-10.37-1.56-1.531.33-3.07 2.38-5.01 2.77-1.25.25-2.72-.26-3.8 0-1.74.421-2.32 2.601-3.63 2.931-1.26-.09-2.04-1.601-3.28-2.071-.93-.349-2.45-.24-3.63-.86-1.56-.819-2.56-2.44-4.15-2.77-1.11-.23-3.77-.32-5.01 0-1.8.46-2.07 2.38-3.46 2.77-2.94.82-5.41-.27-6.22-2.25-.43-1.06-.49-2.399-.86-3.46-.29-.81-1.44-2.85-1.38-4.319.05-1.34 1.15-2.511 2.07-2.59 2.17-.181 2.26 1.97 3.8 2.769h6.91c1.19-.71 1.77-2.03 2.94-2.769 3.02.349 4.97-2.271 6.57-3.971 1.45-1.54 3.37-3.26 2.59-5.529-4.78-.921-12.56 1.139-15.731-1.381.621-1.239 2.421-.64 3.631-.69 1.55-.07 3.56-.259 5.53-.179 4.22.189 6.43.439 7.95-2.071 4.26-1.509 9.43.47 13.65-.69 1.34-.37 2.47-1.64 3.98-2.08.4-.109.91.101 1.38 0 .52-.1.9-.6 1.379-.689.921-.161 1.901.129 2.771 0 1.93-.271 4.53-1.21 7.08-1.55 3.36-2.061 4.13-7.37-1.21-8.13-.95-.12-2.98-.25-3.97 0-.89.239-1.35 1.47-2.421 2.079-1.399.801-3.429.301-5.189.86-1.36.441-2.26 2.33-3.62 2.771-2.98.96-5.67.059-8.3-.351-.34-1.3 1.33-1.62 1.9-2.939.88-2.071.13-4.901-.17-7.25-.74-.311-1.95-.131-2.94-.181-3.67 2.45-4.38 7.84-10.37 7.95-1.44 2.16-4.29 3.1-8.29 2.771-1.23-.101-2.74-.37-3.8-.691-1.03-.309-2.62-1-4.5-.69-.74.12-1.75.921-2.59.69-.9-.259-.92-1.41-1.03-3.46-.56-10.02 0-21.27 0-32.49 0-3.88-.69-9.51.17-11.75.53-1.37 2.19-1.46 2.59-2.93.18-.69-.21-1.83 0-2.589.47-1.75 2.11-1.401 2.77-3.12.33-.901-.06-1.831.17-2.59.47-1.651 2.25-1.781 2.76-2.941-.18-10.45.98-24.5.18-34.559-.19-2.281-1.57-3.83-2.94-5.351-.24-1.97.3-4.37 0-6.569-.11-.731-.58-1.351-.69-2.071-.56-3.57-.62-7.969 0-10.889.51-2.441 2.76-3.681 3.45-5.7.07-2.241-.16-4.771.18-6.741h-46.49v8.12c-.41 1.4-3.14 2.63-3.62 5.01-.34 1.64.53 3.861 0 5.531-.47 1.439-2.32 2.469-2.42 3.629-.11 1.071.44 2.21 1.03 2.76 2.21-.01 4.26.13 6.22.351 1.66 2.149 1.04 5.599 1.04 8.639 0 9.6.14 20.08-.17 29.031-3.06-.151-6.29 1.019-9.68.17-1.22-.3-1.98-1.971-3.11-2.241-2.8-.679-6.52 0-9.68 0-3.01 0-6.91-.769-9.67 0-1.02.281-1.6 1.93-2.94 2.241-2.28.54-5.09-.92-6.39 1.04-.29.859-.34 2.83.17 3.46 2.43.279 4.11-.26 6.04.17 1.36.309 2.29 2.16 3.81 2.589 2.49.71 4.35-.16 7.77.18 1.92.471 3.34 2.5 5.36 2.931 3.76.809 7.43-1.321 11.58-.691 1.19 1 1.65 2.731 3.11 3.46 2.9-.51 6.17 2.05 6.22 3.63.04 1.57-3.01 2.691-1.73 5.181-1.06 1.71-4.15 1.849-3.63 5.529.34 2.37 2.44 4.78 2.94 8.29.47 3.38-.51 7.431.69 10.721.58 1.599 1.99 2.809 2.25 4.319.7 4.09-.35 7.731.69 10.88.43 1.34 1.92 2.41 2.07 3.63.34 2.77-2.1 3.96-3.45 5.36-1.32 1.361-2.21 3.05-4.15 3.46-1.51.3-3.26.151-4.32.691-1.09.54-1.41 1.979-2.42 1.899-.89-.069-2.8-3.069-3.8-3.8-2.38-1.74-4.58-1.62-8.64-1.729-1.06.599-1.67 1.75-1.21 3.109.34 1.04 1.9.84 1.9 1.901-.68 1.219-2.08 1.479-2.08 2.939 0 2.16 5.03 5.2 8.65 4.66 1.58.361 2.18 2.391 3.97 2.941 1.94.599 4.33-.04 6.22.519 1.52.45 1.98 1.931 3.46 2.07.44.43 1.8-.08 2.24.35 1.18.91.85 2.891 1.56 4.15.5.901 1.8 1.21 1.38 2.241-2.04.79-5.52.13-8.12.349-2.05-1.62-3.92-4.4-7.26-5.009-2.4-.451-5.25-.331-7.95-.521-2.77-.199-5.55-.34-8.29 0-1.15.78-1.24 2.04-2.77 2.591-1.82.649-4.36.119-6.22 1.039-2.71 4.6-2.98 10.461-7.77 12.961-4.13 2.139-11.11 1.019-17.11.859-1.84 1.51-2.19 5.481-1.56 7.78.71 2.581 4.94 3.85 7.26 5.18 1.32.76 2.2 1.88 3.11 2.07.72.161 1.84-.12 2.25 0 1 .3 2.07 2.1 3.11 3.291 2.4 2.75 3.95 4.219 6.39 6.389 1.18 1.05 3.03 2.12 3.29 3.28.17.821-.31 1.59-.18 2.25.29 1.531 2.46 1.701 2.08 3.63-1.67.79-2.77-1.04-3.63-1.9-1.02-1.02-2.23-2.05-3.28-3.109-1.44-1.431-4.51-5.701-6.57-6.22-.98-.25-2.04.17-2.94-.181-1.24-.47-1.35-2.13-2.59-2.76-3.92.75-8.8-1-12.44 0-1.62.451-1.98 2.651-3.98 2.59-2.06-.059-3.48-3.12-4.66-4.32-1.4-1.409-3.45-3.659-5.71-3.449-.88.08-1.47.8-2.24 1.38-1.97 1.45-4.7 2.839-5.19 5.349-1.17 6.09 2.76 9.101 5.36 11.75 2.9 2.97 6.19 6.441 9.5 9.16 1.55 1.27 3.88 3.47 5.54 3.8 4.01.84 6.05-.33 7.6-1.899 1.48.649 1.92 2.21 3.11 3.63.93 1.13 3.03 2.229 3.46 3.799.2.781-.08 1.51.17 2.25.47 1.48 2.53 3.1 4.15 3.63.62.21 1.33.12 1.9.34 3.53 1.41 3.77 6.681 9.33 5.53 1.18.42 1.31 2.52 2.59 2.94 1.03.35 2.22-.25 3.11 0 1.78.511 2.57 3.881 5.87 2.94 1.28.68.9 2.25 2.42 2.76 1.33.46 3.04-.269 4.32.7-.11 1.96.22 4.37-.17 6.04-1.27 1.31-1.99-.13-3.8.35-1.48.4-1.66 2.57-3.28 2.761-1.78.219-2.33-1.521-4.15-2.071-.74-.219-1.59.09-2.42-.17-1.79-.57-2.69-3.179-4.15-3.46-1.01-.179-1.98.35-2.59.17-1.39-.41-1.57-2.67-2.94-3.11-1.79-.56-4.74.71-7.08.521-1.69-.13-3.27-1.491-5.19-1.901-.75-.16-1.6.021-2.42-.17-1.67-.389-3.06-1.439-4.14-1.38-1.7.08-3.01 2.21-4.49 2.071-4.02.609-5.42-1.181-8.3-.691-.97.16-1.66 1.271-2.77 1.55-.86.221-1.79-.08-2.59.181-1.39.449-3.25 2.63-3.63 3.279-.48.82-.43 1.9-.69 3.11-.21 1.01-.72 1.59-.69 2.42.07 2.191 1.69 3.12 3.92 3.491 3.94.649 9.81-.451 12.5.479 1.59.57 1.65 2.65 3.63 3.11 3.31.77 6.87-1.7 10.54-.69.7 2.2 2.78 3.32 5.01 3.631 2.48.349 4.82-.671 7.43-.521 2.29.14 3.31 2.01 5.01 2.6 3.09 1.07 6.91.41 10.89.86 1.79 2.58.44 8.311.86 12.271.53 1.229 1.64 2.319 2.76 3.8 1.87 2.46 2.28 5.019 7.26 3.979 2.3.971 2.84 4.78 1.21 6.91h-3.45c-1.56-.75-2.84-1.78-3.98-2.939-2.03-5.351-4.23-10.74-9.33-12.101-.44-.109-1.01.13-1.55 0-1.16-.26-1.88-1.08-2.77-1.03-.86.051-1.65 1.08-2.59 1.03-.89-.04-1.78-1.51-2.77-1.55-1.54-.059-3.43 1.911-5.7 2.241-2.15.319-8.48.569-10.37 0-1.41-.411-1.55-2.231-3.45-2.76-5.28-1.351-8.58-5.801-10.89-10.021-.7-1.29-1.2-3.04-2.25-3.799-.8-.59-1.77-.491-2.93-1.041-.98-.459-1.82-1.389-2.59-1.73-.87-.38-1.82-.62-2.82-.779-4.46-.681-10.08.42-15.85-.08-1.19.769-1.77 2.139-2.94 2.929-3.15.39-6.29-.509-8.63 0-2.29.51-4.52 4.25-3.46 7.09.4 1.09 4.62 4.13 5.53 4.66 1.12.67 3.27.91 4.66 1.91 2.19 1.56 3.5 4.81 5.88 5.35.9.21 1.84-.14 2.77 0 2.29.37 3.98 2.36 6.04 2.771 2.78.549 4.68.58 6.57 1.719.85.521 1.42 1.38 2.42 1.91 2.21 1.161 4.75 1.44 6.57 2.93h2.07c.63.74 1.44.29 2.59.691 1.42.509 3.44 2.33 5.36 3.46.86.509 1.94 1.08 2.94 1.559.97.471 2.59.771 3.1 1.38.41.49.9 1.94 1.04 2.761.24 1.469-.18 3.34 0 5.189-1.25 1.861-3.87 2.351-7.26 2.071-1.44-.72-1.86-2.76-3.45-3.281-2.71-.88-5.47.45-8.64.34-1.33.87-2.9 1.49-5.01 1.561-1.47 1.819-2.35 4.219-5.53 4.319-1.51.801-2 2.61-1.73 5.181 1.94 2.319 5.8 2.729 7.09 5.7-1.71 2.349-4.46 3.63-8.65 3.46-1.55-1.271-2.68-2.96-4.31-4.151-.92-.589-1.79-.639-2.94-1.03-.41-.13-.67-.58-1.04-.689-1.89-.601-3.15-.391-5.18-.701-.74-.1-1.37-.58-2.08-.69-1.32-.189-2.71.2-3.97 0-.87-.13-1.41-.85-2.25-.519-.73.139-.34 1.389-.69 1.91-.68 1.599-3.71 2.29-3.45 4.319.4 3.36 7.41.311 9.33 2.761.49 1.25-.07 2.699.17 4.149.07.47.58 1.061.69 1.731.29 1.769.44 3.5 1.38 4.139 1.27.87 3.04-.05 5.01.35 1.11.23 2.77 1.5 4.67.86 1.89.39 4.17 3.63 2.07 5.191-1.01.739-2.88.299-4.14-.181-1.29.74-1.82 2.23-2.77 3.29-2.2 0-3.13 1.24-4.32 2.24-2.15.33-3.73 1.231-5.36 2.08-.9.031-2.02-.179-2.24.52.9 1.641 2.91 1.9 4.32 2.931 1.45 1.08 2.3 2.809 3.8 3.799 2.4.8 4.13 3.241 6.57 5.02 1.7 1.25 4.21 2.04 6.56 3.11 2.22 1 4.5 2.571 6.74 2.93 1.55.261 3.31-.25 4.84 0 .56.101 1.1.601 1.73.69.53.09 1.16-.13 1.72 0 1.6.38 3.49 1.8 5.19 2.08 1.25.201 2.59-.219 3.63 0 2.84.6 5.36 3.84 3.8 6.741-1.61 2.969-4.37 5.049-6.57 7.25 1.11 6.299-9.39.989-11.57 3.979 1.08 1.51 2.67 2.5 3.62 4.151.73 2.25.01 3.089 0 5.7-1.38 1.55-2.68 3.199-2.93 5.869-2.15.98-4.54 1.7-7.95 1.391-1.48 1.109-4.34.849-6.91.859-3.45.891-6.98 1.671-10.89 2.07-.6.441-.88.571-1.73.7-4.55.691-10.82-.52-15.72 0-1.47 1.18-2.47 2.83-3.46 4.491 1.21 1.139.35 4.359.86 6.219 2.6.861 5.15 1.77 7.09 3.281 3 .45 5.95.96 9.68.689 1.8.36 3.14 2.36 5.18 2.771 3.48.7 7.75-.811 10.54.17 2.14.759 3.14 3.719 4.84 4.149 3.52.88 7.49-.67 10.89 0 1.61.55 1.69 3.121 3.45 3.63.97.281 2.4-.44 3.46.34 1.12 4.82-2.35 7.45-1.04 12.441.68 1.009 1.17 1.52 2.08 1.73 2.95.679 7.23 0 10.88 0 3.41 0 8.04-.851 10.89.169.87.32 1.52 2.25 2.59 2.601.62.199 1.65-.101 2.42 0 1.88.23 3.48 1.139 5.87.69.67.969 1.85 1.369 1.73 2.759-.08.9-1.5 2.08-2.42 2.77-2.11 1.551-5.84 2.29-7.08 4.32-2.16-.5-2.91-2.99-4.84-3.46-1.61-.389-4.08 0-6.22 0h-12.44c-2.15 0-4.8.43-6.4 0-1.22-.32-3.01-2.34-3.97-3.63-1.09-1.44-1.41-3.52-2.59-4.84-.68-.74-2.06-1.18-2.94-2.07-.78-.78-1.17-1.88-1.9-2.42-.68-.49-2.47-1.4-3.11-1.55m156.9 135.3c.54-2.46-.4-6.389.87-8.119 4.4-2.211 11.819-1.431 18.31-1.56 1.69-1.131 3.16-2.48 4.84-3.631.12-3.61-.43-7.92.69-10.539.61-.371.89-1.191 1.56-1.731.46-.37 1.29-.43 1.9-.86.57-.4.769-1.09 1.21-1.38.96-.64 2.14-.75 3.45-.69 2.06 1.26 2.1 3.82 4.67 4.32.67.13 1.59-.25 2.42 0 1.58.47 1.75 2.48 2.76 3.45 1.16.11 2.16.38 2.77 1.04.61 3.32-1.24 5.771-3.63 6.22-.64.12-1.53-.199-2.25 0-1.98.56-3.16 3.26-4.66 3.97-.2 1.36-1.18 1.95-1.04 3.63-1.83 1.23-2.87 3.241-3.11 6.05-1.83.04-3.88.35-6.05 0-.65-.099-1.21-.579-1.9-.69-4.23-.67-8.59.671-12.79.69-1.39 1.38-1.75 3.16-3.45 3.63-1.34.37-3.93.25-5.36 0-1.2-.2-1.88-.89-2.89-.89-.131 0-.25.01-.39.03-1.67.26-3.17 2.29-5.01 2.93-1.8.64-3.93.18-5.88.701-1.02.27-1.81 1.739-3.11 2.239-.36.14-.91.02-1.38.18-2.16.69-4.611.55-7.78.51-1.32 2-7.37 5.111-7.26.35.05-2.27 2.24-2.08 3.81-3.279 1.78-1.391 2.42-3.271 3.8-4.841h5.01c.97-.82 2.04-1.54 3.28-2.079 1.96-.5 3.8.519 4.84.699 3.15.52 6.71.04 9.85-.219.66-.06 1.29-.101 1.9-.131m8.99-279.76c.36-.16 1.13.121 1.72 0 1.04-.21 1.34-.77 2.08-.7.97.111 1.41 1.101 2.24 1.21.43-1.859 2.24-2.62 4.32-1.899 1.26 1.279 1.83 3.25 1.56 6.05-.98 1.729-3.36 1.149-5.36 1.559-1.13.231-2.41 1.45-4.14.861-.69.53-1.45.979-1.56 2.07-1.01-.151-1.09.649-1.9.699-.83-.39-1.67-.75-2.761-.87-1.369-.819-2.189-4.819-.519-6.05.84.03 1.82-.09 2.42.181.36-.881.599-2.571 1.9-3.111m-138.07 77.06c2.37-3.979 6.87-1.46 8.64 1.391 1.59-.05 2.63.469 2.42 2.239-1.06.91-2.54 1.69-3.98 1.9-3.48.531-6.66-2.509-7.08-5.53m92.28 190.78c.3-.15.87.09 1.21 0 .59-.17.81-.62 1.2-.69 2.09-.36 4.11-.049 5.53.511 1.35-2.161 6.17-.851 9.33-1.211.34.941.11 2.43.18 3.631-1.17 1.489-2.54 2.77-5.36 2.589-1.76 1.29-2.87 3.25-6.05 3.11-.39.591-.93 1.04-1.03 1.91-1.9 1.02-5.15-.859-7.61.34-.18.45-.21 1.06-.17 1.73-2.01 1.71-5.46-.61-4.84-3.63.45-2.219 5.29-7.23 7.61-8.29m19.87 35.25c1.15.1 2.04-1 2.59.17-.94 2.591-3.08 3.96-5.19 5.361-.47-.23-.84-.54-1.38-.691h-5.36c-.21-.36-.5-.65-.86-.87.24-1.93-.431-2.95.17-3.97.64-1.08 5.37-1.85 7.43-1.39 1.16.27 1.77 1.31 2.6 1.39m38.01-266.63c.59-1.129 2.06-1.389 2.77-2.42-.17-3.009 2.98-2.65 4.32-1.209-.12 3 .22 6.439-.18 9.16-1.01.54-1.9 1.21-2.59 2.069-1.6 3.07-4.78 4.54-7.95 6.051-1.37-.45-1.511-1.561-2.24-2.591-.26-.359-.89-.619-1.21-1.04-1.28-1.69-2.33-3.77-3.63-4.149-1.13-.321-2.28.28-3.11 0-1.2-.391-1.49-2.571-2.77-2.941-2.15-.609-6 1.061-5.01-3.109 1.31-.361 2.43-.901 3.81-1.21.76-3.7 6.42-2.37 10.88-2.591.53 1.37 1.18 2.62 2.25 3.46 2.21.091 3.31 1.29 4.32 2.591.29-.5.4-1.2.34-2.071m-109.72 190.08c-.6.101-1.32-.149-1.91 0-.61.14-1.11.76-1.73.86-4.78.8-7.25-5.31-7.6-9.68 1.56-1 2.39-3.389 4.15-3.8 2.73-.63 3.73 2.61 6.91 2.08 1.05.851 1.32 2.48 2.25 3.45 1.14.35 2.89.1 4.32.18.52 1.531 1.58 3.86-.18 4.83h-2.07c-1.35.59-2.54 1.8-4.14 2.08m-2.08-349.919c-.39-.071-1 .129-1.38 0-1.31-.441-4.11-2.38-4.15-3.46-.04-1.071 1.83-2.441 2.59-3.111 1.25-1.099 1.94-2.05 3.46-2.42 1.36.611.5 2.01.86 3.111.59 1.79 3.76 2.479 2.94 5.529 2.05 2.66 3.96 5.48 7.09 7.091 3.27.29 5.69 1.439 6.22 4.489-3.32.62-8.94.66-11.58-.519-1.25-2.451-.25-3.901-.87-6.05-.51-1.771-3.1-4.25-5.18-4.66m-7.08 306.719c-.77.15-1.56-.13-2.25 0-.53.1-1.17.75-1.73.86-1.03.22-3.18-.289-5.01 0-1.18.191-1.84.76-2.59.691-.62-.06-1.95-.75-2.07-.861-1.01-.869-2.41-4.179-2.77-5.53-.11-.41.12-1.02 0-1.56s-.63-.96-.69-1.38c-.19-1.13.14-2.479 0-3.8.85-.77 1.12-1.71 2.24-1.9 2.04-.34 3.63 2.29 6.4 1.551 3.47 2.089 6.41-1.391 10.71-.691.77.84 1.86.39 3.11.691.26.069.6.599 1.04.699 2.02.43 4 1.42 4.32 2.59.56 2.1-1.19 4.25-2.25 5.01-1.23.88-3.15 1.21-4.49 1.73-1.53.59-2.93 1.69-3.97 1.9m12.44-117.34c-.38-.07-.89.1-1.21 0-1.1-.32-2.09-1.11-3.29-1.379-1.24-.271-1.51-.42-2.24-.691-2.61-.93-4.48-1.13-6.39-2.24h-1.56c-.75-1.159-2.56-1.25-3.46-2.25-.55-4.92-.59-10.35-7.25-9.159-3.75-1.561-7.62-3.901-6.22-10.021 2.62-1.519 5.46-2.83 5.53-6.91 1.24-.529 2.22-1.069 3.62-.87.58.091 3.59 1.141 3.98 1.391 2.19 1.389 3.4 4.089 5.01 5.519 7.26.41 15.26.061 22.81.181 3.35.929 1.08 6.199 1.9 9.5.14.58.66 1.58.86 1.899.34.521.98 1.03 1.56 1.38 1.49-1.88 3.44-.87 5.01.521 1.61 1.439 3.04 3.79 4.32 4.5 1.19.299 1.87 1.129 2.59 1.899v3.62c-1.1.981-2.94 1.21-5.18 1.04-.77.74-1.36 1.641-2.42 2.07-2.33.571-4.86.911-7.95.701-1.22 1.089-3.74.87-6.05.859-.58-.17-.8-.689-1.38-.859-1.37.359-1.81-.54-2.59-.701m31.45 257.82c.56 3.12-3.26.92-5.88 1.39-.67-.83-2.28-.72-3.8-.7-.99-1.05-2.31-1.04-3.97-1.38-.55-.11-1.04-.61-1.56-.69-.73-.109-1.52.15-2.25 0-.64-.13-1.24-.74-1.9-.859-2.19-.411-3.25 0-4.66-.69-2.12-1.051-3.87-2.421-4.67-4.5.98-1.321 2.67-1.941 5.19-1.721 3.08 1.69 6.53 3.01 10.02 4.31h1.9c1.01.86 3.24.84 5.18 1.391 1.39.389 6.19 2.339 6.4 3.449m-7.95 3.801c3.23-.851 4.52 1.829 5.01 4.319-.24.69-.68 1.181-.86 1.911-3.6 1.73-6.56-.491-6.23-4.671 1.01-.46 1.13-1.3 2.08-1.559m-6.22-400.891c1.11.33 1.13 1.75 1.21 3.11.8.92 1.82 1.63 1.9 3.281-3.21 2.099-4.47-4.451-3.11-6.391m-1.04-2.069c-.85.529-1.79-.111-1.73-1.04.59-.55 1.83-.101 1.73 1.04" fill="#152615" transform="translate(597.29 342.1396)"/></g></g></g></svg>